<svg width="24" height="24" viewBox="0 0 24 24" fill="none" xmlns="http://www.w3.org/2000/svg">
<path d="M16.8042 8.2758C17.4007 8.2758 17.8842 7.79227 17.8842 7.1958C17.8842 6.59933 17.4007 6.1158 16.8042 6.1158C16.2077 6.1158 15.7242 6.59933 15.7242 7.1958C15.7242 7.79227 16.2077 8.2758 16.8042 8.2758Z" fill="white"/>
<path d="M12 7.37835C11.0859 7.37835 10.1924 7.64941 9.43235 8.15724C8.67232 8.66507 8.07995 9.38688 7.73015 10.2314C7.38035 11.0759 7.28883 12.0051 7.46715 12.9016C7.64548 13.7982 8.08565 14.6217 8.732 15.268C9.37835 15.9144 10.2018 16.3545 11.0984 16.5328C11.9949 16.7112 12.9241 16.6196 13.7686 16.2698C14.6131 15.92 15.3349 15.3277 15.8428 14.5677C16.3506 13.8076 16.6217 12.9141 16.6217 12C16.6217 10.7743 16.1347 9.59873 15.268 8.732C14.4013 7.86527 13.2257 7.37835 12 7.37835ZM12 15C11.4067 15 10.8266 14.8241 10.3333 14.4944C9.83994 14.1648 9.45542 13.6962 9.22836 13.148C9.0013 12.5999 8.94189 11.9967 9.05764 11.4147C9.1734 10.8328 9.45912 10.2982 9.87868 9.87868C10.2982 9.45912 10.8328 9.1734 11.4147 9.05764C11.9967 8.94189 12.5999 9.0013 13.148 9.22836C13.6962 9.45542 14.1648 9.83994 14.4944 10.3333C14.8241 10.8266 15 11.4067 15 12C15 12.7956 14.6839 13.5587 14.1213 14.1213C13.5587 14.6839 12.7956 15 12 15Z" fill="white"/>
<path d="M12 4.62165C14.4031 4.62165 14.6878 4.6308 15.6368 4.67415C16.2075 4.68094 16.7728 4.78577 17.308 4.98405C17.6961 5.13381 18.0486 5.36316 18.3428 5.65732C18.6369 5.95149 18.8663 6.30398 19.016 6.6921C19.2143 7.22731 19.3191 7.79261 19.3259 8.36333C19.3692 9.3123 19.3784 9.597 19.3784 12.0001C19.3784 14.4031 19.3693 14.6879 19.3259 15.6368C19.3191 16.2075 19.2143 16.7728 19.016 17.3081C18.8663 17.6962 18.6369 18.0487 18.3428 18.3428C18.0486 18.637 17.6961 18.8663 17.308 19.0161C16.7728 19.2144 16.2075 19.3192 15.6368 19.326C14.6879 19.3693 14.4033 19.3785 12 19.3785C9.5967 19.3785 9.31215 19.3693 8.36325 19.326C7.79253 19.3192 7.22723 19.2144 6.69202 19.0161C6.3039 18.8663 5.95142 18.637 5.65725 18.3428C5.36308 18.0487 5.13374 17.6962 4.98397 17.3081C4.78569 16.7728 4.68087 16.2075 4.67408 15.6368C4.6308 14.6879 4.62157 14.4031 4.62157 12.0001C4.62157 9.597 4.63072 9.3123 4.67408 8.36333C4.68087 7.79261 4.78569 7.22731 4.98397 6.6921C5.13373 6.30396 5.36307 5.95146 5.65724 5.65728C5.95141 5.3631 6.30389 5.13375 6.69202 4.98397C7.22723 4.78569 7.79253 4.68087 8.36325 4.67408C9.31222 4.6308 9.59693 4.62165 12 4.62165ZM12 3C9.55575 3 9.24922 3.01035 8.2893 3.05415C7.54279 3.06914 6.80422 3.21059 6.105 3.4725C5.50705 3.70374 4.96401 4.05735 4.51068 4.51068C4.05735 4.96401 3.70374 5.50705 3.4725 6.105C3.21055 6.80434 3.06909 7.54304 3.05415 8.28968C3.01035 9.24923 3 9.55575 3 12C3 14.4442 3.01035 14.7508 3.05415 15.7107C3.0691 16.4573 3.21056 17.196 3.4725 17.8954C3.70374 18.4933 4.05735 19.0364 4.51068 19.4897C4.96401 19.943 5.50705 20.2966 6.105 20.5279C6.80434 20.7898 7.54304 20.9313 8.28968 20.9462C9.24923 20.9897 9.55575 21 12 21C14.4442 21 14.7508 20.9896 15.7107 20.9458C16.4573 20.9309 17.196 20.7894 17.8954 20.5275C18.4933 20.2963 19.0364 19.9427 19.4897 19.4893C19.943 19.036 20.2966 18.493 20.5279 17.895C20.7898 17.1957 20.9313 16.457 20.9462 15.7103C20.9897 14.7508 21 14.4442 21 12C21 9.55575 20.9896 9.24922 20.9458 8.2893C20.9309 7.54279 20.7894 6.80422 20.5275 6.105C20.2962 5.50712 19.9426 4.96415 19.4893 4.51089C19.0359 4.05763 18.4929 3.70407 17.895 3.47287C17.1957 3.21093 16.457 3.06948 15.7103 3.05453C14.7508 3.01035 14.4442 3 12 3Z" fill="white"/>
</svg>
