<svg width="24" height="24" viewBox="0 0 24 24" fill="none" xmlns="http://www.w3.org/2000/svg">
<path d="M8.94 18.705C10.2069 18.713 11.4627 18.4693 12.6346 17.9882C13.8066 17.507 14.8714 16.798 15.7672 15.9022C16.663 15.0064 17.3721 13.9416 17.8532 12.7696C18.3343 11.5977 18.578 10.3418 18.57 9.07499C18.57 8.92499 18.57 8.78249 18.57 8.63249C19.2267 8.15136 19.7951 7.56012 20.25 6.88499C19.6316 7.15544 18.9773 7.3348 18.3075 7.41749C19.0177 6.99432 19.5506 6.32824 19.8075 5.54249C19.1456 5.93957 18.4199 6.21871 17.6625 6.36749C17.1524 5.82401 16.4775 5.46378 15.7421 5.34253C15.0067 5.22128 14.2518 5.34576 13.5943 5.69673C12.9368 6.04769 12.4132 6.60557 12.1047 7.28405C11.7962 7.96252 11.7198 8.72376 11.8875 9.44999C10.542 9.38395 9.22553 9.03525 8.02377 8.42662C6.822 7.81798 5.7619 6.96305 4.9125 5.91749C4.48419 6.66087 4.35437 7.53923 4.54932 8.37473C4.74427 9.21023 5.24942 9.94043 5.9625 10.4175C5.43646 10.3972 4.92259 10.2533 4.4625 9.99749V10.035C4.45783 10.8119 4.71954 11.5669 5.20403 12.1742C5.68851 12.7815 6.3665 13.2044 7.125 13.3725C6.63573 13.5041 6.12322 13.5246 5.625 13.4325C5.84459 14.095 6.26376 14.6734 6.82503 15.0883C7.38631 15.5032 8.06219 15.7344 8.76 15.75C7.56691 16.7104 6.08407 17.239 4.5525 17.25C4.28397 17.2422 4.01606 17.2197 3.75 17.1825C5.30022 18.1702 7.1019 18.6909 8.94 18.6825" fill="white"/>
</svg>
