<?xml version="1.0" standalone="no"?>
<!DOCTYPE svg PUBLIC "-//W3C//DTD SVG 20010904//EN"
 "http://www.w3.org/TR/2001/REC-SVG-20010904/DTD/svg10.dtd">
<svg version="1.0" xmlns="http://www.w3.org/2000/svg"
 width="512.000000pt" height="512.000000pt" viewBox="0 0 512.000000 512.000000"
 preserveAspectRatio="xMidYMid meet">
<metadata>
Created by potrace 1.14, written by Peter Selinger 2001-2017
</metadata>
<g transform="translate(0.000000,512.000000) scale(0.100000,-0.100000)"
fill="#000000" stroke="none">
<path d="M2355 4336 c-153 -39 -286 -112 -397 -218 -117 -113 -177 -220 -259
-469 -33 -101 -63 -191 -66 -199 -3 -8 -7 -19 -8 -25 -2 -5 -19 -57 -38 -115
-88 -264 -380 -1148 -397 -1203 l-19 -62 22 30 c43 59 163 178 222 220 171
121 355 175 600 172 l140 -1 136 405 c75 222 139 411 142 419 3 8 60 181 128
383 91 276 131 383 159 426 71 110 148 162 250 171 22 1 -39 26 -122 49 -114
31 -125 33 -268 36 -114 3 -149 0 -225 -19z"/>
<path d="M2971 4179 c-84 -16 -164 -81 -200 -164 -7 -16 -44 -122 -82 -234
l-68 -203 134 -407 c74 -223 190 -572 257 -776 66 -203 126 -375 132 -381 10
-10 702 -415 796 -466 19 -10 49 -27 65 -37 54 -33 105 -61 112 -61 17 0 -8
148 -44 260 -23 69 -82 253 -133 410 -330 1023 -589 1795 -627 1871 -71 142
-201 214 -342 188z"/>
<path d="M1870 2383 c-207 -33 -373 -111 -501 -233 -18 -17 -119 -139 -119
-144 0 -2 20 0 44 4 67 10 155 3 221 -18 35 -11 371 -194 820 -447 418 -236
883 -498 1034 -583 150 -85 299 -163 330 -174 39 -14 83 -20 146 -20 81 -1 97
2 160 31 86 39 146 100 189 191 27 58 31 75 31 160 0 67 -6 113 -19 155 -11
33 -20 61 -21 63 -1 1 -14 -2 -28 -7 -34 -13 -68 -1 -175 64 -103 62 -104 62
-347 203 -110 63 -211 122 -225 131 -14 8 -35 21 -47 27 -24 13 -209 120 -233
134 -64 39 -540 305 -600 335 -104 52 -251 105 -340 121 -69 12 -261 17 -320
7z"/>
<path d="M1293 1924 c-74 -15 -110 -33 -162 -81 -39 -36 -45 -52 -132 -313
-97 -291 -110 -356 -90 -448 26 -124 108 -230 219 -284 62 -30 75 -33 167 -33
91 0 106 3 165 31 71 34 142 97 179 157 20 32 265 738 258 742 -1 1 -30 18
-65 38 -35 20 -65 37 -68 37 -2 0 -21 11 -42 24 -64 40 -206 113 -242 124 -56
17 -122 19 -187 6z"/>
</g>
</svg>
