<svg width="22" height="17" viewBox="0 0 22 17" fill="none" xmlns="http://www.w3.org/2000/svg">
<path d="M11 8H2V9.5H11V8Z" fill="white"/>
<path d="M8 4.25H0.5V5.75H8V4.25Z" fill="white"/>
<path d="M21.4392 8.4548L19.1892 3.2048C19.1315 3.06979 19.0355 2.95469 18.9129 2.87383C18.7904 2.79297 18.6468 2.74991 18.5 2.75H16.25V1.25C16.25 1.05109 16.171 0.860322 16.0303 0.71967C15.8897 0.579018 15.6989 0.5 15.5 0.5H3.5V2H14.75V11.4172C14.4083 11.6156 14.1092 11.8797 13.8701 12.1943C13.6309 12.5089 13.4564 12.8677 13.3566 13.25H8.64342C8.46088 12.543 8.02675 11.9269 7.42242 11.517C6.81809 11.1072 6.08504 10.9319 5.36067 11.0239C4.63631 11.1159 3.97038 11.4689 3.48768 12.0168C3.00499 12.5647 2.73869 13.2698 2.73869 14C2.73869 14.7302 3.00499 15.4353 3.48768 15.9832C3.97038 16.5311 4.63631 16.8841 5.36067 16.9761C6.08504 17.0681 6.81809 16.8928 7.42242 16.483C8.02675 16.0731 8.46088 15.457 8.64342 14.75H13.3566C13.5201 15.3933 13.8934 15.9638 14.4174 16.3712C14.9414 16.7787 15.5862 16.9999 16.25 16.9999C16.9138 16.9999 17.5586 16.7787 18.0826 16.3712C18.6066 15.9638 18.9799 15.3933 19.1434 14.75H20.75C20.9489 14.75 21.1397 14.671 21.2803 14.5303C21.421 14.3897 21.5 14.1989 21.5 14V8.75C21.5 8.64849 21.4793 8.54805 21.4392 8.4548ZM5.75 15.5C5.45333 15.5 5.16332 15.412 4.91664 15.2472C4.66997 15.0824 4.47771 14.8481 4.36418 14.574C4.25065 14.2999 4.22094 13.9983 4.27882 13.7074C4.3367 13.4164 4.47956 13.1491 4.68934 12.9393C4.89912 12.7296 5.16639 12.5867 5.45736 12.5288C5.74834 12.4709 6.04994 12.5006 6.32402 12.6142C6.59811 12.7277 6.83238 12.92 6.9972 13.1666C7.16203 13.4133 7.25 13.7033 7.25 14C7.24954 14.3977 7.09136 14.779 6.81016 15.0602C6.52895 15.3414 6.14768 15.4995 5.75 15.5ZM16.25 4.25H18.0056L19.6129 8H16.25V4.25ZM16.25 15.5C15.9533 15.5 15.6633 15.412 15.4166 15.2472C15.17 15.0824 14.9777 14.8481 14.8642 14.574C14.7506 14.2999 14.7209 13.9983 14.7788 13.7074C14.8367 13.4164 14.9796 13.1491 15.1893 12.9393C15.3991 12.7296 15.6664 12.5867 15.9574 12.5288C16.2483 12.4709 16.5499 12.5006 16.824 12.6142C17.0981 12.7277 17.3324 12.92 17.4972 13.1666C17.662 13.4133 17.75 13.7033 17.75 14C17.7495 14.3977 17.5914 14.779 17.3102 15.0602C17.029 15.3414 16.6477 15.4995 16.25 15.5ZM20 13.25H19.1434C18.9782 12.6076 18.6045 12.0382 18.0808 11.631C17.5572 11.2239 16.9133 11.0019 16.25 11V9.5H20V13.25Z" fill="white"/>
</svg>
