<svg width="24" height="24" viewBox="0 0 24 24" fill="none" xmlns="http://www.w3.org/2000/svg">
<path d="M11.9998 1.5C9.56549 1.51658 7.21257 2.37849 5.34356 3.93828C3.47455 5.49807 2.20559 7.65882 1.75375 10.0509C1.30192 12.443 1.69529 14.9177 2.86657 17.0518C4.03785 19.1858 5.91426 20.8466 8.1748 21.75C8.02287 20.7558 8.02287 19.7442 8.1748 18.75L9.4123 13.5C9.21646 13.0245 9.11949 12.5142 9.1273 12C9.1273 10.545 9.9748 9.45 11.0248 9.45C11.215 9.44714 11.4036 9.48543 11.5776 9.56224C11.7517 9.63906 11.9071 9.75258 12.0331 9.89504C12.1592 10.0375 12.253 10.2055 12.3081 10.3876C12.3632 10.5697 12.3783 10.7615 12.3523 10.95C12.3523 11.85 11.7823 13.2 11.4823 14.445C11.4177 14.6772 11.4101 14.9215 11.4599 15.1573C11.5098 15.3931 11.6157 15.6133 11.7688 15.7995C11.9218 15.9857 12.1175 16.1322 12.3391 16.2267C12.5608 16.3212 12.802 16.361 13.0423 16.3425C14.9023 16.3425 16.3423 14.37 16.3423 11.535C16.361 10.9589 16.2594 10.3853 16.044 9.85062C15.8287 9.31598 15.5042 8.8321 15.0914 8.42986C14.6786 8.02762 14.1864 7.71584 13.6464 7.51442C13.1063 7.31299 12.5302 7.22634 11.9548 7.26C11.3405 7.23361 10.7272 7.33216 10.152 7.54966C9.5769 7.76717 9.05188 8.09912 8.60875 8.52542C8.16563 8.95172 7.81361 9.46351 7.57401 10.0298C7.33441 10.5961 7.21221 11.2051 7.2148 11.82C7.20646 12.6766 7.46895 13.5139 7.9648 14.2125C8.00086 14.2526 8.02654 14.3009 8.03962 14.3532C8.05269 14.4055 8.05275 14.4602 8.0398 14.5125C7.9573 14.8425 7.7773 15.5625 7.7473 15.705C7.7173 15.8475 7.5898 15.9375 7.3948 15.8475C6.0823 15.2325 5.2648 13.32 5.2648 11.775C5.2648 8.4675 7.6723 5.4225 12.2023 5.4225C15.8398 5.4225 18.6748 8.0175 18.6748 11.49C18.6748 15.105 16.4248 18.015 13.2223 18.015C12.7528 18.0313 12.2867 17.9301 11.8662 17.7206C11.4458 17.511 11.0844 17.1997 10.8148 16.815L10.1623 19.3125C9.84951 20.2831 9.41077 21.2085 8.8573 22.065C9.87714 22.3664 10.9364 22.513 11.9998 22.5C14.7846 22.5 17.4553 21.3938 19.4244 19.4246C21.3936 17.4555 22.4998 14.7848 22.4998 12C22.4998 9.21523 21.3936 6.54451 19.4244 4.57538C17.4553 2.60625 14.7846 1.5 11.9998 1.5" fill="white"/>
</svg>
