<svg width="24" height="24" viewBox="0 0 24 24" fill="none" xmlns="http://www.w3.org/2000/svg">
<path d="M20.9326 13.4102C21.0082 12.944 21.0459 12.4724 21.0451 12.0002C21.0451 9.60129 20.0922 7.30066 18.3959 5.60439C16.6996 3.90813 14.399 2.95517 12.0001 2.95517C11.5279 2.95444 11.0563 2.99207 10.5901 3.06768C9.54469 2.44143 8.31999 2.18241 7.11051 2.33174C5.90103 2.48107 4.77611 3.0302 3.91439 3.89193C3.05267 4.75365 2.50354 5.87857 2.3542 7.08805C2.20487 8.29753 2.46389 9.52223 3.09014 10.5677C3.00576 11.0406 2.96061 11.5198 2.95514 12.0002C2.95514 14.3991 3.90809 16.6997 5.60435 18.396C7.30062 20.0922 9.60125 21.0452 12.0001 21.0452C12.4724 21.0459 12.944 21.0083 13.4101 20.9327C14.4556 21.5589 15.6803 21.8179 16.8898 21.6686C18.0992 21.5193 19.2242 20.9701 20.0859 20.1084C20.9476 19.2467 21.4967 18.1218 21.6461 16.9123C21.7954 15.7028 21.5364 14.4781 20.9101 13.4327L20.9326 13.4102ZM16.2976 16.1102C15.8743 16.6955 15.2909 17.146 14.6176 17.4077C13.7869 17.7337 12.8998 17.8917 12.0076 17.8727C10.9692 17.9161 9.93603 17.7023 9.00014 17.2502C8.4545 16.9569 7.98659 16.5378 7.63514 16.0277C7.3132 15.5919 7.13023 15.0691 7.11013 14.5277C7.10934 14.3872 7.13758 14.2481 7.19308 14.119C7.24857 13.9899 7.33013 13.8737 7.43264 13.7777C7.6598 13.5843 7.95222 13.4851 8.25014 13.5002C8.4991 13.4955 8.74141 13.5807 8.93264 13.7402C9.14195 13.936 9.30359 14.1772 9.40514 14.4452C9.53525 14.7584 9.70137 15.0554 9.90014 15.3302C10.0982 15.5839 10.3558 15.7848 10.6501 15.9152C11.0499 16.0867 11.4831 16.1661 11.9176 16.1477C12.5366 16.1777 13.1497 16.0152 13.6726 15.6827C13.8733 15.5651 14.0402 15.3977 14.1572 15.1966C14.2741 14.9956 14.3371 14.7677 14.3401 14.5352C14.3466 14.3723 14.3186 14.2099 14.2578 14.0587C14.1971 13.9075 14.105 13.7708 13.9876 13.6577C13.7206 13.4116 13.3994 13.2318 13.0501 13.1327C12.6601 13.0052 12.1426 12.8777 11.4901 12.7352C10.7408 12.5607 10.0099 12.3146 9.30764 12.0002C8.75506 11.7737 8.26781 11.4128 7.89014 10.9502C7.53193 10.4734 7.34677 9.88877 7.36513 9.29268C7.35908 8.68668 7.55428 8.0958 7.92014 7.61267C8.33803 7.09349 8.89454 6.7034 9.52514 6.48767C10.3225 6.22284 11.1604 6.10096 12.0001 6.12768C12.6572 6.11605 13.3122 6.20457 13.9426 6.39018C14.4374 6.53708 14.9021 6.77071 15.3151 7.08017C15.6402 7.3243 15.9109 7.63334 16.1101 7.98767C16.2723 8.2739 16.3599 8.59626 16.3651 8.92518C16.3642 9.06539 16.3352 9.20399 16.2798 9.3328C16.2244 9.46161 16.1437 9.57803 16.0426 9.67518C15.9406 9.78577 15.8164 9.87364 15.6781 9.93308C15.5398 9.99252 15.3906 10.0222 15.2401 10.0202C14.9989 10.0389 14.7597 9.9637 14.5726 9.81018C14.3758 9.62055 14.2112 9.40017 14.0851 9.15768C13.8994 8.77542 13.6303 8.43969 13.2976 8.17517C12.8611 7.90304 12.3473 7.78183 11.8351 7.83017C11.3094 7.80801 10.7886 7.93824 10.3351 8.20517C10.1704 8.29312 10.0313 8.42227 9.93144 8.58C9.83154 8.73774 9.77424 8.91869 9.76514 9.10518C9.7592 9.30894 9.82563 9.50823 9.95264 9.66768C10.1022 9.84099 10.2861 9.98144 10.4926 10.0802C10.7126 10.194 10.9439 10.2845 11.1826 10.3502C11.4226 10.4177 11.8126 10.5152 12.3601 10.6427C13.0501 10.7927 13.6651 10.9577 14.2276 11.1377C14.7308 11.291 15.2103 11.5131 15.6526 11.7977C16.0385 12.0417 16.3559 12.3798 16.5751 12.7802C16.798 13.2369 16.9013 13.7427 16.8751 14.2502C16.8819 14.9153 16.6799 15.5658 16.2976 16.1102V16.1102Z" fill="white"/>
</svg>
