<?xml version="1.0" standalone="no"?>
<!DOCTYPE svg PUBLIC "-//W3C//DTD SVG 20010904//EN"
 "http://www.w3.org/TR/2001/REC-SVG-20010904/DTD/svg10.dtd">
<svg version="1.0" xmlns="http://www.w3.org/2000/svg"
 width="512.000000pt" height="512.000000pt" viewBox="0 0 512.000000 512.000000"
 preserveAspectRatio="xMidYMid meet">
<metadata>
Created by potrace 1.14, written by Peter Selinger 2001-2017
</metadata>
<g transform="translate(0.000000,512.000000) scale(0.100000,-0.100000)"
fill="#000000" stroke="none">
<path d="M1277 2555 l-1277 -2555 283 0 282 1 383 767 383 767 1229 0 1229 0
383 -767 383 -768 282 0 283 0 -1277 2555 c-703 1405 -1280 2555 -1283 2555
-3 0 -580 -1150 -1283 -2555z m1304 1373 c8 -18 105 -211 216 -428 586 -1154
732 -1444 728 -1448 -3 -4 -1926 -4 -1930 0 -2 2 6 24 19 48 88 176 555 1096
719 1420 111 217 206 405 211 417 14 30 19 29 37 -9z"/>
</g>
</svg>
